# xmcd
# 
# Track frame offsets:
#     150
#     19410
#     42007
#     61266
# 
# Disc length: 1115
# 
# Revision: 7
# Processed by: cddbd v1.5.2PL0 Copyright (c) Steve Scherf et al.
# Submitted via: fre:ac v1.0.17
# 
DISCID=2b045904
DTITLE=倉木麻衣 - 24 Xmas time
DYEAR=2008
DGENRE=JPop
TTITLE0=24 Xmas time
TTITLE1=All want
TTITLE2=24 Xmas time-instrumental-
TTITLE3=All want-instrumental-
EXTD=
EXTT0=
EXTT1=
EXTT2=
EXTT3=
PLAYORDER=
